<svg width="117" height="24" viewBox="0 0 117 24" fill="none" xmlns="http://www.w3.org/2000/svg">
<path d="M10.5201 0.0355301H0L12.2675 24H23.376L35.6613 0.0355301H25.1412L17.8307 16.6716L10.5201 0.0355301Z" fill="#1A1A18"/>
<path d="M48.5351 3.8147e-06H39.1917V23.9645H48.5351V3.8147e-06Z" fill="#1A1A18"/>
<path d="M62.8352 18.2942V15.0847H75.4058C76.2082 15.0847 76.868 15.8871 76.868 16.6895C76.868 17.4918 76.2082 18.2942 75.4058 18.2942H62.8352ZM73.6585 5.72361C74.4609 5.72361 75.1205 6.52601 75.1205 7.3284C75.1205 8.13078 74.4609 8.95101 73.6585 8.95101H62.8352V5.72361H73.6585ZM81.1118 11.6077C82.8234 10.5201 83.8933 8.75476 83.8933 6.45464C83.9468 2.28228 80.4341 0.0176866 76.2796 0.0355279H53.4919V24H78.0448C82.1638 24 85.6942 21.7534 85.6406 17.5632C85.6406 14.5497 83.8219 12.4814 81.1118 11.6077Z" fill="#1A1A18"/>
<path d="M88.137 24H116.185V17.8485H97.4802V14.7815H116.185V9.23617H97.4802V6.16934H116.185V0.0355301H88.137V24Z" fill="#1A1A18"/>
</svg>
